<?xml version="1.0" ?><!DOCTYPE svg  PUBLIC '-//W3C//DTD SVG 1.1//EN'  'http://www.w3.org/Graphics/SVG/1.1/DTD/svg11.dtd'><svg enable-background="new 0 0 500 500" height="500px" id="Capa_1" version="1.1" viewBox="0 0 500 500" width="500px" xml:space="preserve" xmlns="http://www.w3.org/2000/svg" xmlns:xlink="http://www.w3.org/1999/xlink"><path d="M412.226,87.133L88.29,412.367c41.458,40.974,98.435,66.279,161.33,66.279  c126.765,0,229.527-102.764,229.527-229.527C479.146,185.895,453.58,128.644,412.226,87.133z" fill="#46589A"/><path d="M249.619,19.592c-126.765,0-229.527,102.762-229.527,229.527c0,63.87,26.096,121.639,68.197,163.248  L412.226,87.133C370.665,45.414,313.159,19.592,249.619,19.592z" fill="#36497F"/><circle cx="249.062" cy="248.562" fill="none" r="243.438" stroke="#46589A" stroke-miterlimit="10" stroke-width="5"/><path clip-rule="evenodd" d="M270.178,250.409c0,1.129,0,1.96,0,2.792  c0,42.55,0,85.101,0,127.65c0,2.723-0.001,2.723-2.696,2.723c-16.591,0.002-33.181,0.002-49.771,0c-2.409,0-2.412-0.004-2.412-2.458  c-0.001-42.67,0-85.339,0-128.008c0-0.824,0-1.647,0-2.66c-9.09,0-18.011,0-27.081,0c0-15.419,0-30.647,0-46.086  c8.999,0,17.918,0,27.081,0c0-0.9,0-1.594,0-2.286c0.006-9.25-0.089-18.502,0.049-27.75c0.128-8.672,1.161-17.24,4.005-25.499  c5.482-15.921,16.828-25.28,32.912-29.283c6.976-1.736,14.094-2.406,21.261-2.45c11.814-0.072,23.633-0.024,35.447-0.027  c0.589,0,1.175,0,1.951,0c0.053,0.713,0.133,1.281,0.133,1.849c0.007,14.144-0.023,28.288,0.042,42.431  c0.009,1.638-0.529,1.984-2.044,1.975c-7.817-0.047-15.637-0.062-23.452,0.07c-2.299,0.04-4.648,0.371-6.873,0.96  c-5.075,1.346-7.623,4.428-8.121,9.654c-0.269,2.843-0.353,5.712-0.38,8.57c-0.061,6.504-0.035,13.01-0.044,19.515  c-0.002,0.651-0.001,1.303-0.001,2.236c13.745,0,27.362,0,41.153,0c-0.413,4.016-0.785,7.737-1.177,11.455  c-0.772,7.348-1.56,14.694-2.33,22.043c-0.392,3.733-0.8,7.466-1.115,11.207c-0.116,1.38-0.924,1.389-1.961,1.387  c-10.742-0.019-21.484-0.011-32.227-0.011C271.823,250.409,271.121,250.409,270.178,250.409z" fill="#FFFFFF" fill-rule="evenodd"/></svg>