<?xml version="1.0" ?><!DOCTYPE svg  PUBLIC '-//W3C//DTD SVG 1.1//EN'  'http://www.w3.org/Graphics/SVG/1.1/DTD/svg11.dtd'><svg enable-background="new 0 0 500 500" height="500px" id="Capa_1" version="1.1" viewBox="0 0 500 500" width="500px" xml:space="preserve" xmlns="http://www.w3.org/2000/svg" xmlns:xlink="http://www.w3.org/1999/xlink"><path d="M412.226,87.133L88.29,412.367c41.458,40.974,98.435,66.279,161.33,66.279  c126.765,0,229.527-102.764,229.527-229.527C479.146,185.895,453.58,128.644,412.226,87.133z" fill="#B02225"/><path d="M249.619,19.592c-126.765,0-229.527,102.762-229.527,229.527c0,63.87,26.096,121.639,68.197,163.248  L412.226,87.133C370.665,45.414,313.159,19.592,249.619,19.592z" fill="#961E24"/><circle cx="249.062" cy="248.562" fill="none" r="243.438" stroke="#B02225" stroke-miterlimit="10" stroke-width="5"/><path clip-rule="evenodd" d="M192.646,383.492c-0.598-1.4-1.529-2.751-1.746-4.207  c-3.566-23.928-2.21-47.476,4.093-70.952c5.872-21.875,10.583-44.062,15.7-66.136c0.351-1.514,0.158-3.344-0.345-4.838  c-5.332-15.827-5.944-31.446,2.341-46.497c4.19-7.614,10.34-13.141,19.244-14.709c13.487-2.376,23.763,5.89,24.67,19.614  c0.514,7.789-1.227,15.23-3.322,22.609c-3.04,10.705-6.197,21.376-9.327,32.056c-2.782,9.49-1.807,18.274,5.624,25.343  c7.631,7.259,16.895,8.339,26.719,5.687c9.363-2.525,16.298-8.551,21.904-16.172c9.368-12.734,13.939-27.37,16.252-42.783  c1.717-11.447,2.734-22.994,0.35-34.455c-4.794-23.045-18.949-37.672-41.638-43.02c-28.052-6.61-54.155-2.127-75.19,18.816  c-18.057,17.978-24.469,40.254-19.645,65.445c1.201,6.268,4.331,11.759,8.496,16.55c2.555,2.938,3.183,5.947,2.012,9.629  c-1.112,3.498-1.824,7.121-2.782,10.67c-1.282,4.749-4.04,6.138-8.524,4.196c-12.639-5.473-20.84-15.231-25.387-27.88  c-9.636-26.81-6.461-52.562,8.226-76.718c15.676-25.782,39.172-40.72,68.396-46.738c22.948-4.725,45.823-4.377,67.771,4.681  c30.128,12.434,49.6,34.272,55.762,66.75c2.838,14.959,1.15,29.96-1.979,44.748c-3.59,16.969-10.188,32.625-21.345,46.095  c-14.949,18.045-34.137,27.762-57.633,27.886c-15.387,0.083-28.489-5.529-38.108-18.606c-2.03,7.944-4.051,15.614-5.946,23.314  c-3.685,14.975-7.188,30.057-15.543,43.293c-5.662,8.97-11.916,17.566-17.906,26.328  C193.442,383.492,193.043,383.492,192.646,383.492z" fill="#FFFFFF" fill-rule="evenodd"/></svg>