<?xml version="1.0" encoding="utf-8"?>
<!-- Generator: Adobe Illustrator 16.0.0, SVG Export Plug-In . SVG Version: 6.00 Build 0)  -->
<!DOCTYPE svg PUBLIC "-//W3C//DTD SVG 1.1//EN" "http://www.w3.org/Graphics/SVG/1.1/DTD/svg11.dtd">
<svg version="1.1" id="Capa_1" xmlns="http://www.w3.org/2000/svg" xmlns:xlink="http://www.w3.org/1999/xlink" x="0px" y="0px"
	 width="478.125px" height="478.125px" viewBox="0 0 478.125 478.125" enable-background="new 0 0 478.125 478.125"
	 xml:space="preserve">
<g>
	<path fill="#C1C1C1" d="M420.75,19.125h9.563V0H95.625C68.85,0,47.812,21.038,47.812,47.812V420.75
		c0,32.513,24.862,57.375,57.375,57.375h325.125V76.5h-9.563c-15.3,0-28.688-13.388-28.688-28.688S405.45,19.125,420.75,19.125z
		 M95.625,19.125H382.5c0,0-9.563,13.388-9.563,28.688S382.5,76.5,382.5,76.5H95.625c-15.3,0-28.688-13.388-28.688-28.688
		S80.325,19.125,95.625,19.125z M124.312,459h-19.125c-21.038,0-38.25-17.213-38.25-38.25V86.062
		c7.65,5.737,17.212,9.562,28.688,9.562h28.688L124.312,459L124.312,459z M411.188,95.625V459h-267.75V95.625h114.75H411.188z"/>
</g>
<rect x="256.973" y="164.563" fill="#C1C1C1" stroke="#C1C1C1" stroke-width="5" stroke-miterlimit="10" width="11.127" height="112"/>
<rect x="207.125" y="215.589" fill="#C1C1C1" stroke="#C1C1C1" stroke-width="5" stroke-miterlimit="10" width="112" height="11.126"/>
</svg>
