<?xml version="1.0" ?><!DOCTYPE svg  PUBLIC '-//W3C//DTD SVG 1.1//EN'  'http://www.w3.org/Graphics/SVG/1.1/DTD/svg11.dtd'><svg enable-background="new 0 0 500 500" height="500px" id="Capa_1" version="1.1" viewBox="0 0 500 500" width="500px" xml:space="preserve" xmlns="http://www.w3.org/2000/svg" xmlns:xlink="http://www.w3.org/1999/xlink"><path d="M412.226,87.133L88.29,412.367c41.458,40.974,98.435,66.279,161.33,66.279  c126.765,0,229.527-102.764,229.527-229.527C479.146,185.895,453.58,128.644,412.226,87.133z" fill="#CE4B85"/><path d="M249.619,19.592c-126.765,0-229.527,102.762-229.527,229.527c0,63.87,26.096,121.639,68.197,163.248  L412.226,87.133C370.665,45.414,313.159,19.592,249.619,19.592z" fill="#C41C6C"/><circle cx="249.062" cy="248.562" fill="none" r="243.438" stroke="#CE4B85" stroke-miterlimit="10" stroke-width="5"/><path clip-rule="evenodd" d="M249.16,384.691c-74.119-0.009-134.19-60.112-134.159-134.23  c0.032-74.082,60.222-134.167,134.317-134.084c74.047,0.083,134.142,60.375,133.992,134.432  C383.161,324.732,323.074,384.699,249.16,384.691z M265.384,224.233c-44.363,25.09-90.28,24.587-137.148,11.412  c-6.516,47.969,18.585,93.803,50.996,114.233c18.394-47.886,51.711-78.821,103.155-90.038  C276.664,247.856,271.068,236.137,265.384,224.233z M189.637,356.986c1.797,0.988,3.102,1.756,4.45,2.438  c14.56,7.365,30,11.671,46.258,12.796c22.525,1.56,43.917-2.757,64.123-12.915c1.927-0.969,2.473-2.037,2.059-4.159  c-0.749-3.855-1.107-7.783-1.718-11.667c-3.688-23.479-9.293-46.475-17.19-68.908c-0.771-2.188-1.625-3.015-4.072-2.481  C236.138,282.417,206.189,311.985,189.637,356.986z M258.904,213.847c-16.472-27.696-36.619-51.935-58.921-75.092  c-36.151,16.949-59.662,44.954-69.918,84.62C174.464,236.184,217.408,237.354,258.904,213.847z M322.672,153.795  c-9.773,25.689-25.231,47.221-46.882,63.381c6.146,13.416,11.995,26.333,18.072,39.143c0.446,0.939,2.586,1.641,3.86,1.532  c15.403-1.298,30.708-0.585,45.868,2.314c8.81,1.686,17.517,3.903,26.271,5.881C378.219,229.778,353.846,171.449,322.672,153.795z   M269.047,206.908c20.922-16.071,34.712-36.363,43.239-60.398c-30.419-20.026-73.353-22.238-99.437-11.842  C234.008,156.741,252.998,180.423,269.047,206.908z M367.859,278.742c-22.522-7.252-45.056-10.668-68.902-8.738  c9.335,26.487,15.422,53.181,19.395,81.023C343.948,332.618,360.23,308.895,367.859,278.742z" fill="#FFFFFF" fill-rule="evenodd"/></svg>