<?xml version="1.0" encoding="utf-8"?>
<!-- Generator: Adobe Illustrator 16.0.0, SVG Export Plug-In . SVG Version: 6.00 Build 0)  -->
<!DOCTYPE svg PUBLIC "-//W3C//DTD SVG 1.1//EN" "http://www.w3.org/Graphics/SVG/1.1/DTD/svg11.dtd">
<svg version="1.1" id="Layer_1" xmlns="http://www.w3.org/2000/svg" xmlns:xlink="http://www.w3.org/1999/xlink" x="0px" y="0px"
	 width="63px" height="59px" viewBox="0 0 63 59" enable-background="new 0 0 63 59" xml:space="preserve">
<g>
	<path fill="#C1C1C1" d="M51.211,46.344l-10.68-10.678c-1.592,2.473-3.695,4.578-6.17,6.17L45.04,52.514
		c1.705,1.705,4.469,1.705,6.171,0C52.915,50.813,52.915,48.049,51.211,46.344z"/>
	<path fill="#C1C1C1" d="M40.854,24.703c0-9.641-7.815-17.455-17.455-17.455S5.944,15.063,5.944,24.703
		c0,9.639,7.815,17.453,17.454,17.453S40.854,34.342,40.854,24.703z M23.398,37.793c-7.219,0-13.091-5.873-13.091-13.09
		c0-7.219,5.872-13.092,13.091-13.092c7.219,0,13.09,5.873,13.09,13.092C36.488,31.92,30.617,37.793,23.398,37.793z"/>
	<path fill="#C1C1C1" d="M13.217,24.703h2.909c0-4.01,3.263-7.273,7.272-7.273v-2.908C17.785,14.521,13.217,19.088,13.217,24.703z"
		/>
</g>
</svg>
