<?xml version="1.0" ?><!DOCTYPE svg  PUBLIC '-//W3C//DTD SVG 1.1//EN'  'http://www.w3.org/Graphics/SVG/1.1/DTD/svg11.dtd'><svg enable-background="new 0 0 500 500" height="500px" id="Capa_1" version="1.1" viewBox="0 0 500 500" width="500px" xml:space="preserve" xmlns="http://www.w3.org/2000/svg" xmlns:xlink="http://www.w3.org/1999/xlink"><path d="M412.226,87.133L88.29,412.367c41.458,40.974,98.435,66.279,161.33,66.279  c126.765,0,229.527-102.764,229.527-229.527C479.146,185.895,453.58,128.644,412.226,87.133z" fill="#5BA7EB"/><path d="M249.619,19.592c-126.765,0-229.527,102.762-229.527,229.527c0,63.87,26.096,121.639,68.197,163.248  L412.226,87.133C370.665,45.414,313.159,19.592,249.619,19.592z" fill="#2F87C9"/><circle cx="249.062" cy="248.562" fill="none" r="243.438" stroke="#5BA7EB" stroke-miterlimit="10" stroke-width="5"/><path clip-rule="evenodd" d="M245.018,208.015c0-6.682-0.404-12.641,0.071-18.53  c1.997-24.783,22.533-45.873,47.212-48.8c17.581-2.085,32.958,2.589,46.054,14.708c1.21,1.12,3.811,1.832,5.323,1.35  c8.342-2.655,16.562-5.699,24.789-8.707c1.876-0.687,3.611-1.759,5.837-2.312c-1.252,5.919-4.035,11.068-7.868,15.477  c-3.878,4.461-8.352,8.404-13.025,13.032c10.019-0.709,18.994-3.935,28.659-6.617c-2.423,3.085-4.599,6.412-7.324,9.202  c-5.059,5.181-10.268,10.249-15.765,14.956c-2.498,2.139-3.469,4.236-3.445,7.451c0.241,33.997-9.332,65.089-28.583,93.037  c-25.662,37.253-61.031,59.153-105.918,65.202c-36.366,4.899-70.734-1.229-102.65-19.759c-1.195-0.694-2.343-1.468-3.495-2.607  c14.041,0.827,27.827-0.267,41.353-3.986c13.646-3.751,25.955-10.097,37.361-19.097c-24.084-3.009-41.012-14.953-50.188-37.848  c4.547,0,8.329,0.191,12.081-0.055c3.554-0.234,7.076-0.924,10.67-1.961c-15.908-4.805-28.125-13.89-35.994-28.396  c-4.309-7.943-6.479-16.478-6.448-26.237c7.676,3.481,15.047,6.384,23.916,6.367c-23.99-20.57-29.371-44.592-16.524-73.693  C161.719,185.427,199.188,205.016,245.018,208.015z" fill="#FFFFFF" fill-rule="evenodd"/></svg>