<?xml version="1.0" encoding="iso-8859-1"?>
<!-- Generator: Adobe Illustrator 16.0.0, SVG Export Plug-In . SVG Version: 6.00 Build 0)  -->
<!DOCTYPE svg PUBLIC "-//W3C//DTD SVG 1.1//EN" "http://www.w3.org/Graphics/SVG/1.1/DTD/svg11.dtd">
<svg version="1.1" id="Capa_1" xmlns="http://www.w3.org/2000/svg" xmlns:xlink="http://www.w3.org/1999/xlink" x="0px" y="0px"
	 width="430.185px" height="430.184px" viewBox="0 0 430.185 430.184" style="enable-background:new 0 0 430.185 430.184;"
	 xml:space="preserve">
<g>
	<g>
		<path d="M151.675,307.655h27.982c0,0,3.894-0.701,3.894,3.465c0,7.103,0,28.41,0,28.41c0,4.297,3.516,7.812,7.813,7.812h47.459
			c4.297,0,7.813-3.516,7.813-7.812c0,0,0-21.057,0-28.076c0-3.166,4.188-3.799,4.188-3.799h27.687c4.296,0,7.812-3.516,7.812-7.812
			v-47.461c0-4.295-3.515-7.811-7.812-7.811c0,0-21.297,0-28.396,0c-3,0-3.479-3.867-3.479-3.867v-28.008
			c0-4.297-3.517-7.813-7.813-7.813h-47.459c-4.297,0-7.813,3.516-7.813,7.813v28.258c0,0,0.19,3.617-3.435,3.617
			c-7.11,0-28.44,0-28.44,0c-4.297,0-7.812,3.516-7.812,7.811v47.461C143.863,304.14,147.378,307.655,151.675,307.655z"/>
		<path d="M407.903,105.043c0,0-54.336,0-72.448,0c-3.625,0-3.75-3.319-3.75-3.319V43.761c0-9.023-7.341-16.364-16.364-16.364
			h-200.5c-9.023,0-16.364,7.341-16.364,16.364c0,0,0,43.284,0,57.712c0,3.667-4.106,3.569-4.106,3.569h-72.09
			C9.995,105.042,0,115.037,0,127.323v253.183c0,12.285,9.995,22.281,22.281,22.281h385.622c12.286,0,22.281-9.996,22.281-22.281
			V127.324C430.185,115.038,420.189,105.043,407.903,105.043z M118.478,51.849c0-4,3.102-4.451,3.102-4.451h185.959
			c0,0,4.167,0.743,4.167,4.576c0,10.789,0,39.122,0,49.333c0,2.347-0.5,3.736-4.333,3.736c-46.292,0-185.167,0-185.167,0
			s-3.728,0.097-3.728-3.236C118.478,89.317,118.478,65.147,118.478,51.849z M410.185,380.507c0,1.235-1.045,2.28-2.281,2.28H22.281
			c-1.236,0-2.281-1.043-2.281-2.28c0,0,0-155.464,0-207.284c0-2.333,2.789-2.641,2.789-2.641h384.542c0,0,2.854,0.141,2.854,3.016
			C410.185,225.327,410.185,380.507,410.185,380.507z M404.956,150.582c-95.031,0-380.125,0-380.125,0S20,150.848,20,146.973
			c0-4.913,0-19.65,0-19.65c0-1.236,1.044-2.281,2.281-2.281h385.622c1.236,0,2.281,1.044,2.281,2.281v19.4
			C410.185,146.724,410.206,150.582,404.956,150.582z"/>
	</g>
</g>
<g>
</g>
<g>
</g>
<g>
</g>
<g>
</g>
<g>
</g>
<g>
</g>
<g>
</g>
<g>
</g>
<g>
</g>
<g>
</g>
<g>
</g>
<g>
</g>
<g>
</g>
<g>
</g>
<g>
</g>
</svg>
