<?xml version="1.0" ?><!DOCTYPE svg  PUBLIC '-//W3C//DTD SVG 1.1//EN'  'http://www.w3.org/Graphics/SVG/1.1/DTD/svg11.dtd'><svg enable-background="new 0 0 500 500" height="500px" id="Capa_1" version="1.1" viewBox="0 0 500 500" width="500px" xml:space="preserve" xmlns="http://www.w3.org/2000/svg" xmlns:xlink="http://www.w3.org/1999/xlink"><path d="M412.226,87.133L88.29,412.367c41.458,40.974,98.435,66.279,161.33,66.279  c126.765,0,229.527-102.764,229.527-229.527C479.146,185.895,453.58,128.644,412.226,87.133z" fill="#BF4833"/><path d="M249.619,19.592c-126.765,0-229.527,102.762-229.527,229.527c0,63.87,26.096,121.639,68.197,163.248  L412.226,87.133C370.665,45.414,313.159,19.592,249.619,19.592z" fill="#A33D2F"/><circle cx="249.062" cy="248.562" fill="none" r="243.438" stroke="#BF4833" stroke-miterlimit="10" stroke-width="5"/><g><path clip-rule="evenodd" d="M301.674,116.434c-6.883,3.68-13.574,7.818-20.737,10.831   c-3.156,1.327-7.274,0.387-10.957,0.432c-3.015,0.037-6.027,0.007-9.043,0.007c-0.128,0.315-0.254,0.631-0.383,0.946   c1.306,1.199,2.625,2.381,3.911,3.598c17.187,16.27,23.433,35.887,17.579,58.945c-2.933,11.547-10.531,20.06-19.307,27.687   c-4.712,4.098-9.523,8.156-13.73,12.745c-6.332,6.906-6.034,16.026,0.89,22.296c8.827,7.991,18.213,15.361,27.188,23.193   c9.412,8.213,16.322,18.097,18.258,30.725c3.19,20.831-4.117,37.982-19.349,51.886c-13.966,12.749-30.948,19.341-49.395,22.164   c-20.638,3.157-41.15,2.854-61.181-3.964c-9.664-3.29-18.444-8.114-25.631-15.494c-19.678-20.207-12.292-48.524,3.175-63.112   c12.4-11.694,27.775-17.5,44.151-20.666c9.5-1.837,19.201-2.63,28.813-3.889c1.685-0.22,3.373-0.418,6.116-0.757   c-9.389-11.202-13.971-22.953-7.049-37.059c-1.76,0-2.797-0.051-3.829,0.008c-10.644,0.61-21.133,0.043-31.167-4.039   c-28.979-11.792-42.212-43.541-30.01-73.049c9.552-23.102,27.661-36.286,51.655-41.132c10.638-2.149,21.675-2.904,32.557-3.149   c21.008-0.475,42.037-0.139,63.057-0.139c1.339,0,2.68,0,4.021,0C301.409,115.776,301.541,116.105,301.674,116.434z    M225.609,284.074c-19.133,0.57-32.849,3.454-44.994,9.224c-23.603,11.212-29.461,39.614-11.517,57.962   c4.523,4.625,10.403,8.323,16.287,11.133c12.815,6.116,26.714,7.094,40.722,6.488c8.526-0.368,16.849-1.814,24.698-5.381   c23.163-10.521,29.52-38.512,11.553-56.418c-6.574-6.552-14.416-11.813-21.472-17.904   C236.011,284.969,230.676,282.993,225.609,284.074z M176.219,163.247c0.933,18.953,5.187,35.265,16.233,49.199   c6.277,7.918,13.931,13.663,24.505,14.852c13.18,1.482,33.179-7.388,35.489-26.211c1.126-9.179,0.733-18.138-1.292-27.061   c-3.465-15.278-9.553-29.209-21.756-39.675c-18.198-15.606-46.068-6.466-51.47,16.898   C176.911,155.645,176.636,160.212,176.219,163.247z" fill="#FFFFFF" fill-rule="evenodd"/><polygon fill="#FFFFFF" points="368,229 341,229 341,202 326,202 326,229 299,229 299,245 326,245 326,272 341,272 341,245    368,245  "/></g></svg>