<?xml version="1.0" encoding="utf-8"?>
<!-- Generator: Adobe Illustrator 16.0.0, SVG Export Plug-In . SVG Version: 6.00 Build 0)  -->
<!DOCTYPE svg PUBLIC "-//W3C//DTD SVG 1.1//EN" "http://www.w3.org/Graphics/SVG/1.1/DTD/svg11.dtd">
<svg version="1.1" id="Capa_1" xmlns="http://www.w3.org/2000/svg" xmlns:xlink="http://www.w3.org/1999/xlink" x="0px" y="0px"
	 width="611.997px" height="611.998px" viewBox="0 0 611.997 611.998" enable-background="new 0 0 611.997 611.998"
	 xml:space="preserve">
<g>
	<g>
		<path d="M511.114,300.251c-9.939,0-17.639,7.663-17.639,17.65v241.105H368.401v-98.453c0-9.235-7.697-17.31-17.002-17.31h-90.435
			c-9.948,0-17.96,8.073-17.96,17.31v98.453h-124.76v-233.1c0-9.307-7.69-17.036-17.638-17.036c-9.298,0-16.995,7.729-16.995,17.036
			v250.752c0,9.305,7.697,17.036,16.995,17.036h160.358c9.298,0,16.995-7.731,16.995-17.036v-98.454h55.801v98.454
			c0,9.305,7.697,17.036,17.639,17.036h159.715c9.299,0,16.996-7.731,16.996-17.036V317.903
			C528.11,307.915,520.413,300.251,511.114,300.251z"/>
		<path d="M607.002,314.003L467.819,174.225V78.919c0-9.921-8.02-17.583-17.959-17.583c-9.307,0-17.002,7.663-17.002,17.583v60.345
			L318.045,23.774c-3.518-3.558-7.697-5.474-11.864-5.474c-4.81,0-8.982,1.984-12.507,5.474L5.361,312.087
			c-6.917,6.91-7.375,17.994,0,24.357c6.411,7.389,17.454,6.91,24.371,0l276.45-275.793l275.807,278.393
			c2.873,2.874,7.055,4.516,12.508,4.516c4.809,0,8.975-1.642,12.506-4.516C613.42,332.612,613.899,320.981,607.002,314.003z"/>
	</g>
</g>
<rect x="292.753" y="205.499" width="33.746" height="170"/>
<rect x="226.625" y="277.626" width="170" height="33.746"/>
</svg>
